# xmcd
#
# Track frame offsets:
#	150
#	14162
#	30784
#	44203
#	57020
#	70194
#	85578
#	100480
#	117672
#	133359
#	145812
#
# Disc length: 2207 seconds
#
# Revision: 1
# Processed by: cddbd v1.5.2PL0 Copyright (c) Steve Scherf et al.
# Submitted via: audiograbber 1.83.01
#
DISCID=a0089d0b
DTITLE=Kenny Rogers - Kenny
DYEAR=1979
DGENRE=Country
TTITLE0=You Turn The Light On
TTITLE1=You Decorated My Life
TTITLE2=She's A Mystery
TTITLE3=Goodbye Marie
TTITLE4=Tulsa Turnaround
TTITLE5=I Want To Make You Smile
TTITLE6=Santiago Midnight Moonlight
TTITLE7=One Man's Woman
TTITLE8=In And Out Of Your Heart
TTITLE9=Old Folks
TTITLE10=Coward Of The County
EXTD=
EXTT0=
EXTT1=
EXTT2=
EXTT3=
EXTT4=
EXTT5=
EXTT6=
EXTT7=
EXTT8=
EXTT9=
EXTT10=
PLAYORDER=
